<svg width="42" height="42" viewBox="0 0 42 42" fill="none" xmlns="http://www.w3.org/2000/svg">
<path d="M16.6716 27.0211H14.1459C12.2861 27.0211 10.7784 25.5133 10.7784 23.6535V16.9183C10.7784 15.0585 12.2861 13.5508 14.1459 13.5508H27.6162C29.4761 13.5508 30.9838 15.0585 30.9838 16.9183V23.6535C30.9838 25.5133 29.4761 27.0211 27.6162 27.0211H20.8811M20.8811 27.0211L24.2487 23.6535M20.8811 27.0211L24.2487 30.3886" stroke="#1ED760" stroke-width="2.02054" stroke-linecap="round" stroke-linejoin="round"/>
<path d="M21 40C22.1046 40 23 39.1046 23 38C23 36.8954 22.1046 36 21 36C19.8954 36 19 36.8954 19 38C19 39.1046 19.8954 40 21 40Z" fill="#1ED760"/>
<rect x="17" y="11" width="8" height="5" fill="#333842"/>
<path d="M20.5308 17V10.988L19.3188 11.456L19.0548 10.568L20.8668 9.512H21.7788V17H20.5308Z" fill="#1ED760"/>
</svg>
