<svg width="42" height="42" viewBox="0 0 42 42" fill="none" xmlns="http://www.w3.org/2000/svg">
<path d="M11.027 13.5508C12.6067 13.5508 14.0836 14.3339 14.9699 15.6414L15.8056 16.8741L16.932 18.5357M29.6734 26.8438H24.7485C23.4282 26.8438 22.1603 26.3268 21.2164 25.4035L20.2878 24.4953M29.6734 26.8438L26.1811 30.3886M29.6734 26.8438L26.1811 23.299" stroke="#1ED760" stroke-width="2.02054" stroke-linecap="round" stroke-linejoin="round"/>
<path d="M11.027 28.8741C12.6106 28.8741 14.0952 28.1038 15.0069 26.8091L21.1797 18.0433C22.1259 16.6997 23.6665 15.9003 25.3098 15.9003H29.6734M29.6734 15.9003L26.1811 12.3555M29.6734 15.9003L26.1811 19.4451" stroke="#1ED760" stroke-width="2.02054" stroke-linecap="round" stroke-linejoin="round"/>
<path d="M20 40C21.1046 40 22 39.1046 22 38C22 36.8954 21.1046 36 20 36C18.8954 36 18 36.8954 18 38C18 39.1046 18.8954 40 20 40Z" fill="#1ED760"/>
</svg>
